<?xml version="1.0" encoding="utf-8"?>
<!-- Generator: Adobe Illustrator 24.1.1, SVG Export Plug-In . SVG Version: 6.00 Build 0)  -->
<svg version="1.1" id="Layer_1" xmlns="http://www.w3.org/2000/svg" xmlns:xlink="http://www.w3.org/1999/xlink" x="0px" y="0px"
	 viewBox="0 0 512 512" style="enable-background:new 0 0 512 512;" xml:space="preserve">
<style type="text/css">
	.st0{fill:#333333;}
</style>
<g id="XMLID_1_">
	<path id="XMLID_3_" class="st0" d="M358.4,307.2v-256c0-28.4-22.8-51.2-51.2-51.2h-256C22.8,0,0,22.8,0,51.2v256
		c0,28.4,22.8,51.2,51.2,51.2h256C335.6,358.4,358.4,335.6,358.4,307.2z"/>
	<path id="XMLID_4_" class="st0" d="M460.8,153.6h-77.2v51.2h77.2v256h-256v-77.2h-51.2v77.2c0,28.4,22.8,51.2,51.2,51.2h256
		c28.4,0,51.2-22.8,51.2-51.2v-256C512,176.4,489.2,153.6,460.8,153.6z"/>
</g>
</svg>
