<svg width="700" height="300" viewBox="0 0 350 150" version="1.1"
xmlns="http://www.w3.org/2000/svg">
<path id="S" d="M 5.482,31.319 C2.163,28.001 0.109,23.419 0.109,18.358
C0.109,8.232 8.322,0.024 18.443,0.024 C28.569,0.024 36.782,8.232
36.782,18.358 L26.042,18.358 C26.042,14.164 22.638,10.765 18.443,10.765
C14.249,10.765 10.850,14.164 10.850,18.358 C10.850,20.453 11.701,22.351
13.070,23.721 L13.075,23.721 C14.450,25.101 15.595,25.500 18.443,25.952
L18.443,25.952 C23.509,26.479 28.091,28.006 31.409,31.324 L31.409,31.324
C34.728,34.643 36.782,39.225 36.782,44.286 C36.782,54.412 28.569,62.625
18.443,62.625 C8.322,62.625 0.109,54.412 0.109,44.286 L10.850,44.286
C10.850,48.480 14.249,51.884 18.443,51.884 C22.638,51.884 26.042,48.480
26.042,44.286 C26.042,42.191 25.191,40.298 23.821,38.923 L23.816,38.923
C22.441,37.548 20.468,37.074 18.443,36.697 L18.443,36.692 C13.533,35.939
8.800,34.638 5.482,31.319 L5.482,31.319 L5.482,31.319 Z"/>
</svg>